# xmcd
#
# Track frame offsets: 
#        150
#        21148
#        39714
#        56458
#        79374
#        102750
#        116674
#        136121
#        151641
#        175761
#
# Disc length: 2818 seconds
#
# Revision: 0
# Processed by: cddbd v1.5.2PL0 Copyright (c) Steve Scherf et al.
# Submitted via: ExactAudioCopy v0.99pb3
#
DISCID=730b000a
DTITLE=Vernon Gerrett - I'm Too Far Gone
DYEAR=2009
DGENRE=Blues
TTITLE0=Lovin' Arms
TTITLE1=Blues Won't Leave Me Alone
TTITLE2=Time To Settle
TTITLE3=You Went Back On You Word
TTITLE4=Make Up Your Mind
TTITLE5=Because I Love You
TTITLE6=I'm Too Far Gone
TTITLE7=Too Late
TTITLE8=Mr. Crossroad
TTITLE9=Crossroads
EXTD=
EXTT0=
EXTT1=
EXTT2=
EXTT3=
EXTT4=
EXTT5=
EXTT6=
EXTT7=
EXTT8=
EXTT9=
PLAYORDER=
